<?xml version="1.0" encoding="UTF-8" standalone="no"?>
<svg
   xmlns:dc="http://purl.org/dc/elements/1.1/"
   xmlns:cc="http://creativecommons.org/ns#"
   xmlns:rdf="http://www.w3.org/1999/02/22-rdf-syntax-ns#"
   xmlns:svg="http://www.w3.org/2000/svg"
   xmlns="http://www.w3.org/2000/svg"
   version="1.1"
   id="svg2"
   xml:space="preserve"
   width="450.05334"
   height="78.493332"
   viewBox="0 0 450.05334 78.493332"><metadata
     id="metadata8"><rdf:RDF><cc:Work
         rdf:about=""><dc:format>image/svg+xml</dc:format><dc:type
           rdf:resource="http://purl.org/dc/dcmitype/StillImage" /><dc:title></dc:title></cc:Work></rdf:RDF></metadata><defs
     id="defs6"><clipPath
       clipPathUnits="userSpaceOnUse"
       id="clipPath20"><path
         d="M 0,0 H 3375 V 588.695 H 0 Z"
         id="path18" /></clipPath></defs><g
     style="display:inline;opacity:0"
     id="layer1" /><g
     style="opacity:0.5"
     id="g10"
     transform="matrix(0.41481481,0,0,-0.41481481,96.64035,44.834953)"><g
       id="g12"
       transform="scale(0.1)"><g
         id="g14"><g
           id="g16"
           clip-path="url(#clipPath20)"><path
             d="m 626.988,453.176 c -16.34,52.027 -39.879,97.004 -69.937,133.703 l -1.488,1.816 h -60.036 l 5.489,-7.859 C 560.949,495.219 591.34,398.52 591.34,293.41 591.34,192.199 560.93,96.0938 500.977,7.79297 L 495.695,0 h 59.993 l 1.503,2.00391 c 62.618,83.65239 94.368,181.50409 94.368,290.80909 0,54.503 -8.254,108.453 -24.571,160.363 z M 156.031,588.695 H 95.9961 l -1.4883,-1.816 C 64.4102,550.137 40.8906,505.16 24.5703,453.176 8.25391,401.266 0,347.316 0,292.813 0,183.527 31.75,85.6758 94.3672,2.00391 L 95.8711,0 h 59.9919 l -5.281,7.79297 C 90.6289,96.0938 60.2188,192.199 60.2188,293.41 c 0,105.11 30.3906,201.809 90.3242,287.426 l 5.488,7.859"
             style="fill:#231f20;fill-opacity:1;fill-rule:nonzero;stroke:none"
             id="path22" /><path
             d="m 1230.11,443.898 c 68.16,0 92.78,-47.324 92.78,-109.804 V 195.879 h 41.02 v -57.43 h -175.45 v 57.43 h 27.77 v 129.375 c 0,18.937 -3.79,33.449 -12.62,42.285 -5.68,5.676 -13.26,8.84 -23.99,8.84 -23.98,0 -45.44,-27.141 -45.44,-63.117 V 195.879 h 26.51 v -57.43 H 999.762 v 57.43 h 27.768 v 129.375 c 0,18.937 -3.79,33.449 -12.62,42.285 -5.68,5.676 -13.25,8.84 -23.98,8.84 -23.985,0 -45.442,-27.141 -45.442,-63.117 V 195.879 h 26.504 v -57.43 H 797.18 v 57.43 h 41.648 V 379.531 H 797.18 v 57.434 h 140.73 v -79.524 c 15.781,47.336 46.703,86.457 103.51,86.457 54.27,0 80.14,-32.812 87.72,-80.148 16.41,44.816 46.7,80.148 100.97,80.148"
             style="fill:#231f20;fill-opacity:1;fill-rule:nonzero;stroke:none"
             id="path24" /><path
             d="m 1572.16,258.359 v 20.196 c -5.68,-1.258 -12.62,-1.895 -28.4,-5.047 -37.86,-6.945 -49.22,-23.985 -49.22,-47.973 0,-17.664 10.09,-34.707 35.97,-34.707 27.77,0 41.65,27.141 41.65,67.531 z m -184.91,-46.707 c 0,19.571 8.21,37.871 20.83,50.489 17.67,17.675 47.33,32.187 129.37,42.918 33.45,4.414 34.71,5.05 34.71,10.734 v 24.609 c 0,37.871 -17.67,52.383 -52.38,52.383 -10.73,0 -23.35,-1.894 -33.45,-6.308 8.84,-7.579 13.88,-17.676 13.88,-32.825 0,-23.347 -21.45,-40.39 -48.59,-40.39 -35.34,0 -51.75,22.09 -51.75,47.968 0,57.43 73.21,82.668 148.94,82.668 99.09,0 128.11,-47.96 128.11,-109.804 V 204.719 c 0,-13.891 6.32,-16.418 13.89,-16.418 6.31,0 13.25,6.316 18.3,31.562 l 34.71,-8.836 c -10.72,-54.906 -34.71,-79.523 -83.3,-79.523 -39.76,0 -69.43,20.195 -76.37,67.531 H 1581 c -20.83,-51.125 -54.28,-67.531 -100.35,-67.531 -52.38,0 -93.4,30.293 -93.4,80.148"
             style="fill:#231f20;fill-opacity:1;fill-rule:nonzero;stroke:none"
             id="path26" /><path
             d="m 1887.71,514.586 v -80.785 h 94.66 v -54.27 h -94.66 V 239.426 c 0,-26.504 9.47,-42.285 29.03,-42.285 19.57,0 26.5,14.511 37.23,58.062 l 41.66,-10.094 c -12.62,-78.886 -42.92,-113.605 -109.81,-113.605 -70.68,0 -104.77,35.344 -104.77,111.711 v 136.316 h -50.48 v 54.27 h 53.64 v 68.164 l 103.5,12.621"
             style="fill:#231f20;fill-opacity:1;fill-rule:nonzero;stroke:none"
             id="path28" /><path
             d="m 2156.56,514.586 v -80.785 h 94.66 v -54.27 h -94.66 V 239.426 c 0,-26.504 9.47,-42.285 29.03,-42.285 19.57,0 26.5,14.511 37.23,58.062 l 41.65,-10.094 c -12.61,-78.886 -42.91,-113.605 -109.8,-113.605 -70.69,0 -104.77,35.344 -104.77,111.711 v 136.316 h -50.49 v 54.27 h 53.65 v 68.164 l 103.5,12.621"
             style="fill:#231f20;fill-opacity:1;fill-rule:nonzero;stroke:none"
             id="path30" /><path
             d="m 2397.64,315.793 h 98.44 c -2.52,63.105 -18.3,81.406 -47.95,81.406 -29.04,0 -47.34,-19.562 -50.49,-81.406 z m 0,-43.555 c 3.79,-67.519 29.65,-85.195 73.83,-85.195 34.71,0 55.54,14.512 66.9,50.488 h 56.8 c -9.47,-61.847 -49.22,-106.027 -140.1,-106.027 -102.25,0 -166.61,59.949 -166.61,153.359 0,91.516 68.79,159.035 160.92,159.035 105.4,0 155.26,-67.519 149.58,-171.66 h -201.32"
             style="fill:#231f20;fill-opacity:1;fill-rule:nonzero;stroke:none"
             id="path32" /><path
             d="m 2633.66,195.879 h 41.65 v 183.652 h -41.65 v 57.434 h 140.73 v -80.156 c 18.94,57.429 51.76,87.089 95.31,87.089 38.49,0 63.74,-29.66 63.74,-61.847 0,-35.34 -23.99,-59.949 -54.28,-59.949 -30.29,0 -53.01,17.039 -53.01,47.957 0,0.636 0.63,1.894 0.63,2.531 -11.99,-2.531 -33.45,-15.781 -44.81,-51.125 V 195.879 h 54.91 v -57.43 h -203.22 v 57.43"
             style="fill:#231f20;fill-opacity:1;fill-rule:nonzero;stroke:none"
             id="path34" /><path
             d="m 2951.1,241.32 h 53.02 c 29.66,-37.238 66.27,-61.847 99.72,-61.847 23.35,0 34.07,9.465 34.07,25.246 0,21.453 -14.51,29.656 -74.46,44.168 -71.32,17.676 -108.56,40.39 -108.56,95.929 0,54.278 42.29,99.082 111.08,99.082 41.65,0 70.68,-15.136 90.88,-37.226 l 11.35,35.965 h 54.28 V 340.402 h -53.01 c -24.62,32.813 -59.32,56.797 -88.36,56.797 -25.24,0 -33.44,-10.722 -33.44,-25.246 0,-19.558 15.14,-25.867 72.58,-40.39 63.73,-16.407 112.33,-37.235 112.33,-99.715 0,-54.27 -40.39,-100.344 -115.49,-100.344 -49.86,0 -81.42,20.832 -100.98,42.285 l -11.36,-41.023 H 2951.1 V 241.32"
             style="fill:#231f20;fill-opacity:1;fill-rule:nonzero;stroke:none"
             id="path36" /><path
             d="m 490.434,230.266 -20.84,11.035 -4.192,2.246 -1.164,-2.094 -1.16,-2.066 c -24.191,-43.067 -40.058,-52.11 -49.113,-52.11 -6.453,0 -12.207,7.926 -18.102,24.93 l -32.968,97.168 c 5.714,8.977 10.89,17.266 15.582,24.82 l 1.203,1.918 c 16.504,26.496 30.769,49.371 37.324,49.371 0.519,-0.019 1.574,-0.519 1.719,-0.82 8.754,-19.316 17.382,-34.105 41.859,-34.105 25.18,0 43.461,19.824 43.461,47.136 0,27.774 -20.902,47.153 -50.809,47.153 -40.507,0 -69.839,-33.84 -105.945,-92.551 l -1.375,4.242 c -16.211,51.27 -27.922,88.309 -73.613,88.309 -40.383,0 -73.356,-31.825 -95.313,-92.075 l -0.679,-1.816 -0.68,-1.816 1.641,-1.059 1.597,-1.016 19.641,-12.89 2.441,-1.602 2.453,-1.613 1.121,2.691 1.118,2.68 c 14.007,33.152 24.554,47.953 34.148,47.953 6.133,0 10.613,-11.527 15.047,-24.379 l 34.848,-100.961 c -37.188,-65.183 -50.274,-72.273 -54.192,-72.273 -0.558,0.019 -1.937,1.219 -2.277,2.012 l -1.953,4.539 c -7.637,17.765 -14.852,34.519 -41.746,34.519 -25.137,0 -44.082,-19.988 -44.082,-46.539 0,-29.914 23.425,-50.812 56.972,-50.812 44.117,0 69.414,33.293 101.766,84.519 l 0.898,-2.574 c 18.481,-52.852 28.653,-81.945 72.094,-81.945 41.441,0 83.438,34.015 115.27,93.312 l 1.156,2.125 1.16,2.168 -2.16,1.137 -2.156,1.133"
             style="fill:#231f20;fill-opacity:1;fill-rule:nonzero;stroke:none"
             id="path38" /><path
             d="m 3329.3,483.16 h 7.21 c 6.11,0 11.73,0.317 11.73,7.313 0,5.906 -5.1,6.816 -9.78,6.816 h -9.16 z m -6.89,19.727 h 17.15 c 10.6,0 15.55,-4.176 15.55,-12.727 0,-8.012 -5.05,-11.375 -11.67,-12.082 l 12.72,-19.621 h -7.43 l -12.1,19.125 h -7.33 v -19.125 h -6.89 z m 14.83,-54.692 c 17.57,0 31.2,14.024 31.2,32.621 0,18.204 -13.63,32.227 -31.2,32.227 -17.78,0 -31.41,-14.023 -31.41,-32.227 0,-18.597 13.63,-32.621 31.41,-32.621 z m 0,70.442 c 20.73,0 38.11,-16.36 38.11,-37.821 0,-21.855 -17.38,-38.218 -38.11,-38.218 -20.85,0 -38.33,16.363 -38.33,38.218 0,21.461 17.48,37.821 38.33,37.821"
             style="fill:#231f20;fill-opacity:1;fill-rule:nonzero;stroke:none"
             id="path40" /></g></g></g></g></svg>