<?xml version="1.0" encoding="UTF-8" standalone="no"?>
<!DOCTYPE svg PUBLIC "-//W3C//DTD SVG 1.1//EN" "http://www.w3.org/Graphics/SVG/1.1/DTD/svg11.dtd">
<svg version="1.1" xmlns="http://www.w3.org/2000/svg" xmlns:xlink="http://www.w3.org/1999/xlink" preserveAspectRatio="xMidYMid meet" viewBox="0 0 640 640" width="140" height="140"><defs><path d="M310.37 352.35L194.42 352.35L310.37 212.36L310.37 212.36L310.37 352.35Z" id="aXWTEmUBx"></path><path d="M252.39 220.09C220.37 220.09 194.42 194.13 194.42 162.11C194.42 162.11 194.42 162.11 194.42 162.11C202.15 162.11 240.8 162.11 310.37 162.11C293.06 200.76 273.74 220.09 252.39 220.09Z" id="acJF0xHhR"></path><path d="M387.45 294.37C419.46 294.37 445.42 320.33 445.42 352.35C437.69 352.35 399.04 352.35 329.47 352.35C346.77 313.7 366.1 294.37 387.45 294.37Z" id="b15o80N70Q"></path><path d="M329.47 162.11L445.43 162.11L329.47 302.1L329.47 302.1L329.47 162.11Z" id="aMrNrrr7T"></path><path d="M392.34 423.23L392.36 423.23L392.42 423.23L392.47 423.23L392.49 423.23L392.55 423.23L392.57 423.24L392.63 423.24L392.68 423.24L392.71 423.24L394.14 423.26L395.54 423.35L396.91 423.48L398.24 423.67L399.54 423.91L400.81 424.2L402.05 424.54L403.25 424.93L404.42 425.36L405.56 425.85L406.66 426.38L407.72 426.96L408.75 427.58L409.75 428.25L410.7 428.96L411.63 429.71L412.51 430.5L413.36 431.34L414.17 432.21L414.94 433.13L415.68 434.08L416.38 435.07L417.03 436.09L417.65 437.15L418.23 438.25L418.77 439.38L419.27 440.54L419.73 441.74L420.15 442.96L420.53 444.22L420.87 445.51L421.16 446.82L421.42 448.17L421.63 449.54L421.8 450.94L421.92 452.36L422.01 453.81L422.04 455.28L422.04 456.77L421.99 458.29L376.37 458.29L376.5 458.92L376.64 459.54L376.81 460.14L376.98 460.73L377.18 461.31L377.39 461.88L377.61 462.44L377.86 462.98L378.12 463.51L378.39 464.02L378.68 464.53L378.99 465.01L379.32 465.49L379.66 465.95L380.02 466.39L380.39 466.82L380.78 467.24L381.19 467.64L381.61 468.02L382.05 468.39L382.51 468.74L382.98 469.08L383.47 469.4L383.97 469.7L384.5 469.99L385.03 470.26L385.59 470.52L386.16 470.75L386.75 470.97L387.35 471.17L387.98 471.35L388.61 471.52L389.27 471.66L389.94 471.79L390.63 471.9L391.33 471.99L392.05 472.06L392.79 472.11L393.55 472.14L394.32 472.15L394.33 472.11L394.78 472.11L395.22 472.11L395.67 472.1L396.11 472.08L396.55 472.05L397 472.01L397.44 471.96L397.87 471.91L398.31 471.84L398.75 471.77L399.18 471.69L399.61 471.6L400.04 471.51L400.47 471.4L400.89 471.29L401.31 471.17L401.73 471.04L402.15 470.9L402.56 470.75L402.98 470.6L403.38 470.43L403.79 470.26L404.19 470.09L404.59 469.9L404.98 469.71L405.37 469.51L405.76 469.3L406.14 469.08L406.52 468.86L406.9 468.63L407.27 468.39L407.63 468.14L408 467.89L408.35 467.63L408.71 467.36L409.05 467.08L409.4 466.8L409.73 466.51L410.07 466.21L410.39 465.91L418.36 474.5L417.96 474.9L417.55 475.3L417.14 475.69L416.72 476.08L416.28 476.46L415.85 476.83L415.4 477.2L414.94 477.56L414.47 477.91L414 478.26L413.51 478.59L413.02 478.92L412.51 479.24L412 479.56L411.48 479.86L410.94 480.16L410.39 480.44L409.84 480.72L409.27 480.99L408.69 481.24L408.1 481.49L407.5 481.73L406.88 481.95L406.26 482.17L405.62 482.37L404.97 482.56L404.31 482.75L403.63 482.91L402.94 483.07L402.24 483.22L401.53 483.35L400.8 483.47L400.06 483.57L399.3 483.67L398.53 483.75L397.75 483.81L396.95 483.86L396.14 483.9L395.31 483.92L394.47 483.93L393.02 483.9L391.6 483.83L390.21 483.71L388.85 483.55L387.51 483.34L386.2 483.09L384.92 482.79L383.68 482.45L382.46 482.07L381.27 481.64L380.11 481.18L378.98 480.67L377.89 480.13L376.83 479.55L375.8 478.93L374.81 478.28L373.85 477.58L372.93 476.86L372.04 476.1L371.18 475.3L370.37 474.48L369.59 473.62L368.84 472.73L368.14 471.81L367.47 470.86L366.85 469.88L366.26 468.87L365.71 467.84L365.21 466.78L364.74 465.69L364.32 464.58L363.94 463.45L363.6 462.29L363.31 461.11L363.05 459.9L362.85 458.68L362.69 457.44L362.57 456.17L362.5 454.89L362.48 453.59L362.48 452.36L362.53 451.15L362.63 449.94L362.77 448.75L362.96 447.58L363.2 446.42L363.48 445.28L363.81 444.15L364.18 443.05L364.59 441.96L365.04 440.89L365.53 439.85L366.06 438.82L366.63 437.82L367.23 436.85L367.87 435.9L368.55 434.97L369.26 434.08L370 433.21L370.78 432.37L371.59 431.56L372.43 430.79L373.29 430.04L374.19 429.33L375.11 428.65L376.06 428.01L377.04 427.4L378.04 426.83L379.07 426.3L380.11 425.81L381.18 425.35L382.28 424.94L383.39 424.57L384.52 424.25L385.67 423.96L386.83 423.72L388.02 423.53L389.21 423.39L390.43 423.29L391.65 423.24L391.68 423.24L391.73 423.24L391.76 423.24L391.81 423.24L391.86 423.24L391.89 423.24L391.94 423.23L391.97 423.23L392.02 423.23L392.07 423.23L392.1 423.23L392.15 423.23L392.21 423.23L392.26 423.23L392.28 423.23L392.34 423.23ZM389.47 435.12L387.9 435.45L386.42 435.9L385.01 436.47L383.7 437.17L382.48 437.98L381.35 438.92L380.32 439.97L379.39 441.13L378.56 442.4L377.84 443.79L377.24 445.28L376.74 446.88L376.37 448.58L408.22 448.58L407.41 446.81L406.58 445.16L405.71 443.64L404.8 442.24L403.87 440.96L402.91 439.8L401.91 438.76L400.89 437.85L399.83 437.05L398.74 436.38L397.62 435.83L396.47 435.41L395.29 435.1L394.07 434.92L392.83 434.86L391.11 434.93L389.47 435.12Z" id="b1WDo8kNIq"></path><path d="M129.88 435.8L95.6 435.8L95.6 424.61L146.15 424.61L146.15 436.04L111.04 471.7L146.63 471.7L146.63 482.9L94.77 482.9L94.77 471.48L94.77 471.48L129.88 435.8Z" id="l6mPBRYrM"></path><path d="M184.06 423.23L184.09 423.23L184.14 423.23L184.2 423.23L184.22 423.23L184.27 423.23L184.3 423.24L184.35 423.24L184.41 423.24L184.43 423.24L185.86 423.26L187.26 423.35L188.63 423.48L189.97 423.67L191.27 423.91L192.54 424.2L193.78 424.54L194.98 424.93L196.15 425.36L197.28 425.85L198.38 426.38L199.45 426.96L200.48 427.58L201.47 428.25L202.43 428.96L203.35 429.71L204.24 430.5L205.09 431.34L205.9 432.21L206.67 433.13L207.41 434.08L208.1 435.07L208.76 436.09L209.38 437.15L209.96 438.25L210.5 439.38L211 440.54L211.46 441.74L211.88 442.96L212.26 444.22L212.6 445.51L212.89 446.82L213.15 448.17L213.36 449.54L213.53 450.94L213.65 452.36L213.73 453.81L213.77 455.28L213.77 456.77L213.72 458.29L168.1 458.29L168.23 458.92L168.37 459.54L168.53 460.14L168.71 460.73L168.9 461.31L169.11 461.88L169.34 462.44L169.58 462.98L169.84 463.51L170.12 464.02L170.41 464.53L170.72 465.01L171.04 465.49L171.39 465.95L171.74 466.39L172.12 466.82L172.51 467.24L172.91 467.64L173.34 468.02L173.78 468.39L174.23 468.74L174.71 469.08L175.2 469.4L175.7 469.7L176.22 469.99L176.76 470.26L177.32 470.52L177.89 470.75L178.48 470.97L179.08 471.17L179.7 471.35L180.34 471.52L181 471.66L181.67 471.79L182.36 471.9L183.06 471.99L183.78 472.06L184.52 472.11L185.27 472.14L186.04 472.15L186.06 472.11L186.5 472.11L186.95 472.11L187.4 472.1L187.84 472.08L188.28 472.05L188.72 472.01L189.16 471.96L189.6 471.91L190.04 471.84L190.47 471.77L190.91 471.69L191.34 471.6L191.77 471.51L192.19 471.4L192.62 471.29L193.04 471.17L193.46 471.04L193.88 470.9L194.29 470.75L194.7 470.6L195.11 470.43L195.52 470.26L195.92 470.09L196.31 469.9L196.71 469.71L197.1 469.51L197.49 469.3L197.87 469.08L198.25 468.86L198.62 468.63L198.99 468.39L199.36 468.14L199.72 467.89L200.08 467.63L200.43 467.36L200.78 467.08L201.12 466.8L201.46 466.51L201.79 466.21L202.12 465.91L210.08 474.5L209.69 474.9L209.28 475.3L208.87 475.69L208.44 476.08L208.01 476.46L207.57 476.83L207.12 477.2L206.67 477.56L206.2 477.91L205.73 478.26L205.24 478.59L204.75 478.92L204.24 479.24L203.73 479.56L203.2 479.86L202.67 480.16L202.12 480.44L201.56 480.72L201 480.99L200.42 481.24L199.83 481.49L199.23 481.73L198.61 481.95L197.99 482.17L197.35 482.37L196.7 482.56L196.04 482.75L195.36 482.91L194.67 483.07L193.97 483.22L193.26 483.35L192.53 483.47L191.79 483.57L191.03 483.67L190.26 483.75L189.48 483.81L188.68 483.86L187.86 483.9L187.04 483.92L186.19 483.93L184.75 483.9L183.33 483.83L181.94 483.71L180.57 483.55L179.24 483.34L177.93 483.09L176.65 482.79L175.4 482.45L174.18 482.07L173 481.64L171.84 481.18L170.71 480.67L169.62 480.13L168.56 479.55L167.53 478.93L166.54 478.28L165.58 477.58L164.65 476.86L163.76 476.1L162.91 475.3L162.09 474.48L161.31 473.62L160.57 472.73L159.87 471.81L159.2 470.86L158.57 469.88L157.99 468.87L157.44 467.84L156.93 466.78L156.47 465.69L156.05 464.58L155.67 463.45L155.33 462.29L155.03 461.11L154.78 459.9L154.58 458.68L154.41 457.44L154.3 456.17L154.23 454.89L154.2 453.59L154.2 452.36L154.25 451.15L154.35 449.94L154.5 448.75L154.69 447.58L154.93 446.42L155.21 445.28L155.54 444.15L155.9 443.05L156.31 441.96L156.77 440.89L157.26 439.85L157.79 438.82L158.35 437.82L158.96 436.85L159.6 435.9L160.28 434.97L160.99 434.08L161.73 433.21L162.51 432.37L163.31 431.56L164.15 430.79L165.02 430.04L165.92 429.33L166.84 428.65L167.79 428.01L168.77 427.4L169.77 426.83L170.79 426.3L171.84 425.81L172.91 425.35L174 424.94L175.11 424.57L176.25 424.25L177.39 423.96L178.56 423.72L179.74 423.53L180.94 423.39L182.15 423.29L183.38 423.24L183.41 423.24L183.46 423.24L183.49 423.24L183.54 423.24L183.59 423.24L183.62 423.24L183.67 423.23L183.7 423.23L183.75 423.23L183.8 423.23L183.83 423.23L183.88 423.23L183.93 423.23L183.99 423.23L184.01 423.23L184.06 423.23ZM181.19 435.12L179.63 435.45L178.14 435.9L176.74 436.47L175.43 437.17L174.2 437.98L173.08 438.92L172.05 439.97L171.12 441.13L170.29 442.4L169.57 443.79L168.96 445.28L168.47 446.88L168.1 448.58L199.95 448.58L199.14 446.81L198.3 445.16L197.43 443.64L196.53 442.24L195.6 440.96L194.63 439.8L193.64 438.76L192.61 437.85L191.56 437.05L190.47 436.38L189.35 435.83L188.2 435.41L187.01 435.1L185.8 434.92L184.56 434.86L182.84 434.93L181.19 435.12Z" id="fmARYH0u8"></path><path d="M338.23 482.73L338.23 474.68L337.86 475.11L337.49 475.54L337.11 475.96L336.72 476.36L336.33 476.76L335.92 477.15L335.51 477.53L335.09 477.9L334.66 478.25L334.22 478.6L333.78 478.94L333.33 479.27L332.87 479.58L332.41 479.89L331.94 480.19L331.46 480.47L330.98 480.75L330.49 481.01L330 481.26L329.5 481.51L329 481.74L328.49 481.95L327.98 482.16L327.46 482.36L326.93 482.54L326.41 482.72L325.87 482.88L325.34 483.03L324.8 483.17L324.26 483.29L323.71 483.41L323.16 483.51L322.61 483.6L322.06 483.68L321.5 483.74L320.94 483.8L320.38 483.84L319.81 483.86L319.25 483.88L318.68 483.88L317.56 483.86L316.45 483.79L315.35 483.68L314.25 483.53L313.15 483.34L312.07 483.1L310.99 482.82L309.93 482.51L308.88 482.15L307.85 481.75L306.82 481.31L305.82 480.84L304.83 480.32L303.86 479.77L302.91 479.18L301.99 478.55L301.08 477.89L300.2 477.18L299.35 476.45L298.52 475.68L297.72 474.87L296.95 474.03L296.21 473.16L295.5 472.25L294.83 471.31L294.19 470.34L293.58 469.33L293.01 468.29L292.48 467.23L291.99 466.13L291.54 465L291.13 463.84L290.77 462.66L290.45 461.44L290.17 460.2L289.94 458.93L289.76 457.63L289.64 456.31L289.56 454.95L289.53 453.58L289.56 452.19L289.63 450.84L289.76 449.51L289.94 448.21L290.16 446.93L290.43 445.69L290.74 444.47L291.1 443.28L291.5 442.12L291.95 440.99L292.43 439.89L292.95 438.82L293.51 437.79L294.11 436.78L294.75 435.81L295.41 434.87L296.12 433.96L296.85 433.09L297.62 432.25L298.41 431.44L299.24 430.67L300.09 429.94L300.96 429.24L301.87 428.57L302.8 427.95L303.75 427.36L304.72 426.81L305.71 426.29L306.72 425.82L307.75 425.38L308.8 424.99L309.86 424.63L310.94 424.31L312.03 424.04L313.13 423.8L314.25 423.61L315.37 423.46L316.5 423.35L317.64 423.28L318.79 423.26L319.35 423.26L319.91 423.27L320.46 423.29L321.01 423.33L321.57 423.38L322.12 423.44L322.66 423.51L323.21 423.59L323.75 423.69L324.29 423.79L324.82 423.91L325.36 424.04L325.88 424.18L326.41 424.33L326.93 424.5L327.45 424.67L327.96 424.86L328.47 425.05L328.98 425.26L329.48 425.48L329.97 425.71L330.46 425.95L330.95 426.2L331.43 426.46L331.9 426.73L332.37 427.02L332.83 427.31L333.29 427.61L333.74 427.92L334.18 428.25L334.62 428.58L335.05 428.92L335.47 429.27L335.89 429.63L336.3 430.01L336.7 430.39L337.09 430.78L337.48 431.18L337.86 431.59L338.23 432.01L338.23 397.62L350.63 397.62L350.63 482.73L338.23 482.73ZM317.31 435.72L316.05 435.97L314.82 436.32L313.63 436.74L312.48 437.24L311.37 437.82L310.31 438.46L309.29 439.17L308.33 439.95L307.42 440.79L306.57 441.69L305.78 442.64L305.06 443.64L304.4 444.69L303.81 445.79L303.3 446.93L302.86 448.1L302.5 449.32L302.23 450.56L302.04 451.84L301.93 453.14L301.92 454.46L302 455.75L302.17 457.02L302.42 458.26L302.75 459.47L303.16 460.65L303.64 461.78L304.2 462.88L304.83 463.93L305.52 464.93L306.27 465.89L307.09 466.79L307.96 467.64L308.88 468.43L309.86 469.16L310.88 469.82L311.95 470.42L313.06 470.94L314.21 471.4L315.39 471.78L316.61 472.07L317.86 472.29L319.13 472.42L320.43 472.47L321.8 472.42L323.14 472.28L324.44 472.05L325.71 471.73L326.93 471.33L328.1 470.85L329.23 470.29L330.31 469.65L331.34 468.95L332.32 468.18L333.23 467.34L334.09 466.45L334.89 465.49L335.62 464.48L336.29 463.42L336.89 462.31L337.41 461.16L337.86 459.96L338.24 458.73L338.53 457.46L338.75 456.15L338.88 454.82L338.92 453.47L338.84 452.15L338.67 450.85L338.41 449.59L338.07 448.36L337.64 447.17L337.14 446.02L336.57 444.91L335.92 443.85L335.21 442.83L334.43 441.87L333.59 440.96L332.7 440.11L331.75 439.32L330.74 438.6L329.69 437.94L328.6 437.35L327.46 436.84L326.28 436.4L325.07 436.04L323.82 435.77L322.55 435.57L321.25 435.47L319.93 435.46L318.61 435.54L317.31 435.72Z" id="a3Ejfn6BnJ"></path><path d="M430.07 470.36C436.81 466.86 440.55 464.92 441.3 464.53C444.33 469.93 450.1 473.2 456.29 473.04C463.31 473.04 466.94 469.43 466.94 465.35C466.94 460.68 460.16 459.63 452.78 458.12C442.85 456.02 432.52 452.75 432.52 440.75C432.52 431.54 441.29 423.03 455.11 423.15C465.99 423.15 474.07 427.47 478.68 434.45C477.63 435.02 469.3 439.6 468.26 440.17C465.33 435.83 460.37 433.32 455.15 433.52C448.47 433.52 445.07 436.78 445.07 440.52C445.07 444.71 450.46 445.87 458.89 447.75C468.49 449.84 479.37 452.99 479.37 465.11C479.37 473.15 472.35 483.99 455.73 483.88C443.56 483.88 435.01 478.98 430.09 470.36" id="b2gHnsf9Zm"></path><path d="M503.21 467.57L503.21 482.71L490.81 482.71L490.81 397.61L503.21 397.61L503.21 453.34L529.54 424.43L544.65 424.43L521.82 449.37L545.23 482.71L531.19 482.71L513.05 456.84L513.05 456.84L503.21 467.57Z" id="dqBAvdXQG"></path><path d="M252.03 423.25C237.29 423.25 224.93 432.81 224.93 448.66C224.93 450.93 224.93 462.28 224.93 482.71L237.57 482.71C237.57 463.23 237.57 452.41 237.57 450.24C237.57 440.68 243.07 434.96 252.45 434.96C261.84 434.96 266.51 440.68 266.51 450.24C266.51 452.41 266.51 463.23 266.51 482.71L279.09 482.71C279.09 462.28 279.09 450.93 279.09 448.66C279.09 432.81 266.68 423.25 251.98 423.25" id="a5EJ0EWWBO"></path></defs><g><g><g><use xlink:href="#aXWTEmUBx" opacity="1" fill="#000000" fill-opacity="0.5"></use><g><use xlink:href="#aXWTEmUBx" opacity="1" fill-opacity="0" stroke="#000000" stroke-width="1" stroke-opacity="0"></use></g></g><g><use xlink:href="#acJF0xHhR" opacity="1" fill="#000000" fill-opacity="0.5"></use><g><use xlink:href="#acJF0xHhR" opacity="1" fill-opacity="0" stroke="#000000" stroke-width="1" stroke-opacity="0"></use></g></g><g><use xlink:href="#b15o80N70Q" opacity="1" fill="#000000" fill-opacity="0.5"></use><g><use xlink:href="#b15o80N70Q" opacity="1" fill-opacity="0" stroke="#000000" stroke-width="1" stroke-opacity="0"></use></g></g><g><use xlink:href="#aMrNrrr7T" opacity="1" fill="#000000" fill-opacity="0.5"></use><g><use xlink:href="#aMrNrrr7T" opacity="1" fill-opacity="0" stroke="#000000" stroke-width="1" stroke-opacity="0"></use></g></g><g><use xlink:href="#b1WDo8kNIq" opacity="1" fill="#000000" fill-opacity="0.5"></use><g><use xlink:href="#b1WDo8kNIq" opacity="1" fill-opacity="0" stroke="#000000" stroke-width="1" stroke-opacity="0"></use></g></g><g><use xlink:href="#l6mPBRYrM" opacity="1" fill="#000000" fill-opacity="0.5"></use><g><use xlink:href="#l6mPBRYrM" opacity="1" fill-opacity="0" stroke="#000000" stroke-width="1" stroke-opacity="0"></use></g></g><g><use xlink:href="#fmARYH0u8" opacity="1" fill="#000000" fill-opacity="0.5"></use><g><use xlink:href="#fmARYH0u8" opacity="1" fill-opacity="0" stroke="#000000" stroke-width="1" stroke-opacity="0"></use></g></g><g><use xlink:href="#a3Ejfn6BnJ" opacity="1" fill="#000000" fill-opacity="0.5"></use><g><use xlink:href="#a3Ejfn6BnJ" opacity="1" fill-opacity="0" stroke="#000000" stroke-width="1" stroke-opacity="0"></use></g></g><g><use xlink:href="#b2gHnsf9Zm" opacity="1" fill="#000000" fill-opacity="0.5"></use><g><use xlink:href="#b2gHnsf9Zm" opacity="1" fill-opacity="0" stroke="#000000" stroke-width="1" stroke-opacity="0"></use></g></g><g><use xlink:href="#dqBAvdXQG" opacity="1" fill="#000000" fill-opacity="0.5"></use><g><use xlink:href="#dqBAvdXQG" opacity="1" fill-opacity="0" stroke="#000000" stroke-width="1" stroke-opacity="0"></use></g></g><g><use xlink:href="#a5EJ0EWWBO" opacity="1" fill="#000000" fill-opacity="0.5"></use><g><use xlink:href="#a5EJ0EWWBO" opacity="1" fill-opacity="0" stroke="#000000" stroke-width="1" stroke-opacity="0"></use></g></g></g></g></svg>