<?xml version="1.0" encoding="UTF-8" standalone="no"?>
<svg
   xmlns:dc="http://purl.org/dc/elements/1.1/"
   xmlns:cc="http://creativecommons.org/ns#"
   xmlns:rdf="http://www.w3.org/1999/02/22-rdf-syntax-ns#"
   xmlns:svg="http://www.w3.org/2000/svg"
   xmlns="http://www.w3.org/2000/svg"
   id="svg8"
   version="1.1"
   viewBox="0 0 21.800737 15.446087"
   height="15.446087mm"
   width="21.800737mm">
  <defs
     id="defs2" />
  <metadata
     id="metadata5">
    <rdf:RDF>
      <cc:Work
         rdf:about="">
        <dc:format>image/svg+xml</dc:format>
        <dc:type
           rdf:resource="http://purl.org/dc/dcmitype/StillImage" />
        <dc:title></dc:title>
      </cc:Work>
    </rdf:RDF>
  </metadata>
  <g
     transform="translate(-41.229523,-81.42552)"
     id="layer1">
    <path
       id="flowRoot4518"
       transform="scale(0.26458333)"
       d="m 172.35742,307.75 v 0.006 h -16.5293 v 58.37305 h 20.20704 c 3.9549,0 7.20821,-0.36588 9.75976,-1.09766 2.57707,-0.73178 4.93678,-1.96064 7.08008,-3.68555 1.8116,-1.43742 3.25452,-3.2668 4.32617,-5.48828 1.07165,-2.22147 1.60742,-4.78261 1.60742,-7.68359 0,-4.05092 -1.11022,-7.39552 -3.33007,-10.03516 -2.21986,-2.66577 -5.25653,-4.40466 -9.10938,-5.21484 v -0.3125 c 2.2964,-1.17608 4.13388,-2.73203 5.51172,-4.66602 1.37784,-1.96012 2.06641,-4.32539 2.06641,-7.0957 0,-2.403 -0.45416,-4.4655 -1.35743,-6.19336 h 17.69532 v 51.47266 h 7.57812 v -51.47266 h 20.36133 V 307.756 h -35.5625 v -0.006 z m -8.95117,6.63086 h 9.03125 c 2.52604,0 4.64398,0.0925 6.35352,0.27539 1.70954,0.15681 3.16405,0.58732 4.36328,1.29297 1.02062,0.6011 1.76142,1.38457 2.2207,2.35156 0.45928,0.967 0.6875,2.15707 0.6875,3.56836 0,1.69877 -0.25531,3.17521 -0.76562,4.42969 -0.4848,1.22834 -1.32617,2.23548 -2.5254,3.01953 -1.19923,0.78405 -2.50094,1.30506 -3.90429,1.56641 -1.40336,0.23521 -3.29112,0.35351 -5.66407,0.35351 h -9.79687 z m 0,23.4043 h 11.90234 c 2.50053,0 4.61846,0.10537 6.35352,0.31445 1.76057,0.18294 3.25377,0.60053 4.47851,1.25391 1.81161,0.96699 3.06109,2.14219 3.75,3.52734 0.68892,1.38515 1.03321,3.25527 1.03321,5.60742 0,2.06466 -0.33074,3.74989 -0.99414,5.05664 -0.66341,1.30675 -1.7098,2.46902 -3.13867,3.48828 -1.35233,0.94086 -3.08729,1.59505 -5.20508,1.96094 -2.11779,0.33976 -4.83533,0.50977 -8.15235,0.50977 h -10.02734 z"
       style="font-style:normal;font-weight:normal;font-size:10.04075813px;line-height:13.51619339px;font-family:sans-serif;letter-spacing:-1.53529871px;word-spacing:0px;opacity:1;fill:#d27777;fill-opacity:0.94472363;stroke:none;stroke-width:7.90074587" />
  </g>
</svg>
